# xmcd
#
# Track frame offsets: 
#        213
#        13650
#        30633
#        44035
#        57101
#        73191
#
# Disc length: 1171 seconds
#
# Revision: 4
# Processed by: cddbd v1.5.2PL0 Copyright (c) Steve Scherf et al.
# Submitted via: ExactAudioCopy v1.1
#
DISCID=50049106
DTITLE=Taylor Swift - [2008] Beautiful Eyes
DYEAR=2008
DGENRE=Country
TTITLE0=Beautiful Eyes
TTITLE1=Should've Said No (Alternate Version)
TTITLE2=Teardrops On My Guitar (Acoustic Version)
TTITLE3=Picture To Burn (Radio Edit)
TTITLE4=I'm Only Me When I'm With You
TTITLE5=I Heart
EXTD=
EXTT0=
EXTT1=
EXTT2=
EXTT3=
EXTT4=
EXTT5=
PLAYORDER=
